<svg width="32" height="32" viewBox="0 0 32 32" fill="none" xmlns="http://www.w3.org/2000/svg">
  <defs>
    <linearGradient id="phoneGradient" x1="0%" y1="0%" x2="100%" y2="0%">
      <stop offset="0%" style="stop-color:#2563EB;stop-opacity:1" />
      <stop offset="100%" style="stop-color:#9333EA;stop-opacity:1" />
    </linearGradient>
  </defs>
  
  <!-- Background rounded square with gradient (matches header design) -->
  <rect x="0" y="0" width="32" height="32" rx="8" fill="url(#phoneGradient)"/>
  
  <!-- Phone icon (simplified Lucide Phone icon style) -->
  <path d="M8 6C8 5.44772 8.44772 5 9 5H23C23.5523 5 24 5.44772 24 6V26C24 26.5523 23.5523 27 23 27H9C8.44772 27 8 26.5523 8 6Z" fill="white"/>
  <path d="M10 8H22V24H10V8Z" fill="url(#phoneGradient)"/>
  <path d="M14 6H18V7H14V6Z" fill="white"/>
  <path d="M16 25C16.5523 25 17 24.5523 17 24C17 23.4477 16.5523 23 16 23C15.4477 23 15 23.4477 15 24C15 24.5523 15.4477 25 16 25Z" fill="white"/>
</svg>
